<?xml version="1.0" encoding="utf-8"?>
<!-- Generator: Adobe Illustrator 25.4.1, SVG Export Plug-In . SVG Version: 6.00 Build 0)  -->
<svg version="1.1" id="Слой_1" xmlns="http://www.w3.org/2000/svg" xmlns:xlink="http://www.w3.org/1999/xlink" x="0px" y="0px"
	 viewBox="0 0 249.59 227.25" style="enable-background:new 0 0 249.59 227.25;" xml:space="preserve">
<style type="text/css">
	.st0{fill:#4F3C37;}
</style>
<path class="st0" d="M202.07,78.25c-1.79-3.95-4.73-6.62-8.78-8.07c-4.05-1.46-8.04-1.24-11.95,0.67c-3.93,1.91-6.62,4.86-8.04,8.83
	c-1.46,4.06-1.26,8.04,0.59,11.93c1.83,3.91,4.77,6.59,8.83,8.05c3.98,1.43,7.93,1.22,11.84-0.63c3.89-1.82,6.57-4.77,8.02-8.83
	C204.03,86.16,203.87,82.17,202.07,78.25z M163.91,48.4c-1.81-3.93-4.74-6.62-8.77-8.07c-4.06-1.46-8.06-1.26-12.04,0.56
	c-3.98,1.83-6.69,4.78-8.17,8.9c-1.45,4.04-1.23,8.03,0.69,11.96c1.9,3.94,4.88,6.62,8.93,8.08c3.98,1.43,7.94,1.23,11.82-0.63
	c3.91-1.84,6.6-4.78,8.05-8.82C165.87,56.31,165.7,52.32,163.91,48.4z M76.29,79.69c-1.42-3.98-4.11-6.92-8.03-8.83
	c-3.92-1.91-7.9-2.13-11.96-0.67c-4.05,1.45-6.98,4.12-8.78,8.07c-1.79,3.91-1.96,7.9-0.51,11.94c1.46,4.06,4.14,7.01,8.02,8.83
	c3.91,1.85,7.87,2.06,11.85,0.63c4.05-1.46,6.99-4.14,8.82-8.05C77.56,87.73,77.76,83.74,76.29,79.69z M114.66,49.78
	c-1.48-4.11-4.19-7.07-8.17-8.9c-3.98-1.82-7.98-2.02-12.03-0.56c-4.04,1.45-6.96,4.14-8.77,8.07c-1.8,3.93-1.97,7.91-0.51,11.97
	c1.45,4.04,4.13,6.98,8.04,8.82c3.89,1.86,7.85,2.06,11.82,0.63c4.05-1.46,7.02-4.14,8.93-8.08
	C115.89,57.81,116.11,53.82,114.66,49.78z"/>
<path class="st0" d="M177.47,127.9c0,5.02-1.02,8.64-3.06,10.89c-2.05,2.27-5.5,3.38-10.36,3.38h-42.99
	c-5.06-0.62-9.04-4.78-9.37-9.94v-0.01c-0.01-0.22-0.02-0.46-0.02-0.69c0-1.71,0.4-3.32,1.11-4.75c0.94-1.9,2.43-3.49,4.27-4.54
	c1.57-0.9,3.39-1.42,5.33-1.42h24.39c-1.54-6.04-3.82-10.63-6.88-13.84c-3.46-3.59-7.91-5.5-13.33-5.7c-0.3-0.02-0.6-0.03-0.91-0.03
	h-0.12c-4.59,0-8.53,1.39-11.8,4.18c-0.64,0.53-1.24,1.12-1.83,1.76c-0.63,0.7-1.25,1.45-1.83,2.28c-4.09,5.2-6.61,12.43-6.61,20.41
	c0,5.08,1.02,9.84,2.81,13.98c0.92,2.41,1.89,4.37,2.91,5.9c1.48,2.28,3.36,4.26,5.65,5.88l0.2,0.14c3.24,2.47,6.84,4,10.8,4.62
	c0.38,0.07,0.75,0.11,1.13,0.14c2.8,0.46,5.27,1.74,7.42,3.85c1.37,1.35,2.4,2.83,3.08,4.46c0.68,1.63,1.02,3.41,1.02,5.32
	c0,3.77-1.37,7-4.11,9.69c-2.71,2.66-5.92,3.99-9.64,4.03h-0.04c-0.75-0.05-1.49-0.09-2.23-0.16c-6.73-0.56-13.11-2.14-19.11-4.76
	c-7.64-3.32-14.19-8.31-19.67-14.97c-4.24-5.15-7.24-10.7-9.01-16.68c-1.77-5.94-2.67-12.62-2.67-19.97
	c0-15.34,5.18-28.45,15.53-39.36c10.34-10.89,23.14-16.32,38.4-16.32c14.53,0,26.74,5.14,36.65,15.38
	C172.52,101.33,177.47,113.61,177.47,127.9z"/>
</svg>
