<?xml version="1.0" encoding="utf-8"?>
<!-- Generator: Adobe Illustrator 25.4.1, SVG Export Plug-In . SVG Version: 6.00 Build 0)  -->
<svg version="1.1" id="Слой_1" xmlns="http://www.w3.org/2000/svg" xmlns:xlink="http://www.w3.org/1999/xlink" x="0px" y="0px"
	 viewBox="0 0 249.59 227.25" style="enable-background:new 0 0 249.59 227.25;" xml:space="preserve">
<style type="text/css">
	.st0{fill:#272727;}
	.st1{fill:#4F3C37;}
</style>
<g>
	<path class="st0" d="M160.66,131.14c-0.56-1.32-1.34-2.45-2.3-3.37c-0.97-0.94-2.17-1.61-3.6-2.02c-1.16-0.34-2.53-0.52-4.11-0.52
		c-5.72-0.53-7.89,1.77-8.91,2.6c-1.11,0.88-2.34,3.8-2.34,5.1v19.05c0,1.1,0.31,2.01,0.93,2.74c0.61,0.73,1.47,1.1,2.56,1.1
		c1.07,0,1.91-0.37,2.51-1.1c0.61-0.73,0.91-1.65,0.91-2.74v-6.51h5.24c1.57,0,2.98-0.23,4.23-0.73c1.36-0.53,2.5-1.35,3.41-2.46
		c0.8-0.96,1.4-2.08,1.78-3.36c0.37-1.16,0.55-2.43,0.55-3.8C161.52,133.78,161.22,132.45,160.66,131.14z M154.13,136.87
		c-0.18,0.53-0.46,1-0.85,1.38c-0.46,0.46-0.96,0.77-1.53,0.95c-0.56,0.17-1.2,0.27-1.92,0.27h-3.52v-4.35
		c0-2.12,1.71-3.84,3.84-3.84h0.06c1.2,0,2.21,0.35,3,1.07c0.8,0.72,1.2,1.65,1.2,2.83C154.41,135.77,154.32,136.33,154.13,136.87z"
		/>
	<path class="st0" d="M160.66,167.39c-0.56-1.32-1.34-2.45-2.3-3.38c-0.97-0.93-2.17-1.61-3.6-2.01c-1.16-0.34-2.53-0.52-4.11-0.52
		c-5.72-0.53-7.89,1.77-8.91,2.59c-1.11,0.88-2.34,3.8-2.34,5.1v19.05c0,1.11,0.31,2.02,0.93,2.74c0.61,0.74,1.47,1.11,2.56,1.11
		c1.07,0,1.91-0.37,2.51-1.11c0.61-0.73,0.91-1.64,0.91-2.74v-6.51h5.24c1.57,0,2.98-0.24,4.23-0.73c1.36-0.53,2.5-1.35,3.41-2.47
		c0.8-0.96,1.4-2.07,1.78-3.35c0.37-1.17,0.55-2.43,0.55-3.8C161.52,170.03,161.22,168.7,160.66,167.39z M154.13,173.12
		c-0.18,0.52-0.46,0.99-0.85,1.37c-0.46,0.46-0.96,0.78-1.53,0.95c-0.56,0.18-1.2,0.27-1.92,0.27h-3.52v-4.35
		c0-2.12,1.71-3.84,3.84-3.84h0.06c1.2,0,2.21,0.35,3,1.07c0.8,0.71,1.2,1.65,1.2,2.83C154.41,172.02,154.32,172.58,154.13,173.12z"
		/>
	<path class="st0" d="M185.84,133.16c-0.65-0.65-1.46-0.98-2.42-0.98c-0.78,0-1.44,0.23-2,0.7c-0.49,0.41-0.88,0.99-1.19,1.74
		c-0.91-0.93-1.8-1.59-2.66-2c-0.86-0.41-1.89-0.62-3.1-0.62c-1.26,0-2.47,0.28-3.66,0.82c-1.18,0.55-2.24,1.28-3.16,2.21
		c-1.2,1.2-2.09,2.53-2.65,3.99c-0.56,1.47-0.84,3.1-0.84,4.88c0,1.82,0.33,3.56,0.99,5.2c0.66,1.64,1.65,3.04,2.95,4.2
		c0.94,0.81,1.96,1.43,3.06,1.86c1.09,0.43,2.24,0.65,3.45,0.65c1.23,0,2.27-0.21,3.1-0.64c0.83-0.43,1.64-1.13,2.44-2.1
		c0.28,0.77,0.67,1.38,1.19,1.83c0.59,0.52,1.26,0.78,2.03,0.78c1.05,0,1.89-0.4,2.54-1.2c0.6-0.73,0.9-1.65,0.9-2.73v-16.18
		C186.82,134.62,186.49,133.82,185.84,133.16z M178.75,147.91c-0.91,1.15-2.09,1.72-3.55,1.72c-1.47,0-2.6-0.62-3.37-1.87
		c-0.67-1.06-0.99-2.38-0.99-3.95c0-1.44,0.36-2.7,1.08-3.78c0.82-1.22,1.92-1.83,3.29-1.83c1.62,0,2.84,0.6,3.69,1.79
		c0.73,1.05,1.1,2.42,1.1,4.13C179.98,145.6,179.57,146.87,178.75,147.91z"/>
	<path class="st0" d="M222.21,132.78c-0.73-0.42-1.59-0.62-2.61-0.62c-0.66,0-1.24,0.27-1.75,0.81c-0.51,0.53-0.86,1.15-1.05,1.86
		l-3.11,10.52l-3.31-10.19c-0.29-0.97-0.69-1.69-1.19-2.16c-0.59-0.56-1.36-0.84-2.32-0.84c-0.88,0-1.59,0.28-2.14,0.86
		c-0.44,0.47-0.82,1.19-1.12,2.15l-3.25,10.25l-3.18-10.63c-0.19-0.71-0.52-1.31-0.99-1.79c-0.52-0.56-1.11-0.84-1.77-0.84
		c-0.96,0-1.82,0.2-2.54,0.62c-0.84,0.47-1.26,1.12-1.26,1.96c0,0.8,0.1,1.49,0.28,2.08l5.32,15.35c0.34,0.97,0.81,1.77,1.41,2.41
		c0.7,0.73,1.52,1.11,2.43,1.11c1.01,0,1.86-0.3,2.56-0.88c0.78-0.67,1.47-1.94,2.05-3.82l2.32-7.13l2.85,8.32
		c0.35,1.07,0.79,1.88,1.32,2.45c0.67,0.7,1.5,1.06,2.52,1.06c0.97,0,1.79-0.31,2.47-0.9c0.74-0.67,1.44-1.93,2.09-3.8l4.92-14.07
		c0.18-0.67,0.27-1.37,0.27-2.12C223.45,133.92,223.04,133.25,222.21,132.78z"/>
	<path class="st0" d="M183.38,184.08c-0.25,0.03-0.48,0.07-0.7,0.12c-0.21,0.05-0.4,0.11-0.56,0.19l-1.89,0.95
		c-1.21,0.61-2.46,0.9-3.75,0.9c-1.17,0-2.22-0.34-3.13-1.04c-0.5-0.35-0.91-0.78-1.23-1.28c-0.26-0.4-0.52-0.93-0.75-1.61h12.38
		c1.02,0,1.76-0.24,2.19-0.72c0.43-0.48,0.65-1.25,0.65-2.3c0-3.04-1.05-5.64-3.16-7.82c-2.1-2.18-4.69-3.26-7.76-3.26
		c-3.24,0-5.95,1.15-8.14,3.46c-2.19,2.31-3.28,5.09-3.28,8.34c0,1.56,0.19,2.97,0.56,4.23c0.37,1.27,1.01,2.45,1.91,3.53
		c1.17,1.41,2.55,2.48,4.17,3.18c1.62,0.71,3.36,1.06,5.23,1.06c1.32,0,2.63-0.15,3.9-0.46c1.28-0.3,2.46-0.76,3.55-1.38
		c0.78-0.46,1.38-0.91,1.79-1.37c0.59-0.64,0.88-1.32,0.88-2.03c0-0.74-0.28-1.38-0.85-1.91
		C184.81,184.35,184.15,184.08,183.38,184.08z M172.68,174.9c0.76-0.85,1.73-1.26,2.89-1.26c1.25,0,2.27,0.41,3.04,1.22
		c0.65,0.67,1.14,1.65,1.46,2.93h-8.94C171.56,176.53,172.07,175.56,172.68,174.9z"/>
	<path class="st0" d="M205.02,169.5c-0.64-0.52-1.44-0.78-2.39-0.78h-1.9v-4.17c0-1.05-0.29-1.92-0.88-2.64
		c-0.58-0.71-1.39-1.07-2.4-1.07c-1.05,0-1.87,0.36-2.46,1.07c-0.6,0.72-0.9,1.59-0.9,2.64v4.17c-0.64,0-1.15,0.02-1.52,0.06
		c-0.37,0.04-0.76,0.17-1.16,0.37c-0.4,0.2-0.75,0.55-1.02,1.04c-0.27,0.49-0.41,0.99-0.41,1.51c0,0.79,0.26,1.47,0.78,2.03
		c0.35,0.43,0.87,0.72,1.54,0.86c0.41,0.09,1.01,0.13,1.79,0.13v13.45c0,1.05,0.31,1.93,0.9,2.64c0.61,0.71,1.42,1.07,2.45,1.07
		c1.04,0,1.85-0.35,2.42-1.05c0.58-0.7,0.86-1.59,0.86-2.66v-13.45h1.9c0.94,0,1.74-0.27,2.39-0.82c0.64-0.55,0.96-1.28,0.96-2.21
		C205.98,170.76,205.66,170.03,205.02,169.5z"/>
</g>
<path class="st1" d="M183.59,66.51c-1.44-3.18-3.81-5.33-7.07-6.5c-3.26-1.17-6.48-1-9.63,0.54c-3.16,1.54-5.33,3.91-6.48,7.11
	c-1.17,3.27-1.02,6.48,0.47,9.6c1.47,3.15,3.84,5.31,7.11,6.48c3.2,1.15,6.39,0.98,9.54-0.51c3.13-1.47,5.29-3.84,6.46-7.11
	C185.17,72.87,185.04,69.66,183.59,66.51z M152.86,42.46c-1.46-3.16-3.81-5.33-7.06-6.5c-3.27-1.17-6.49-1.02-9.69,0.45
	c-3.2,1.47-5.38,3.85-6.58,7.16c-1.17,3.25-0.99,6.47,0.55,9.63c1.53,3.17,3.93,5.33,7.19,6.51c3.2,1.15,6.39,0.99,9.52-0.51
	c3.15-1.48,5.32-3.85,6.48-7.11C154.44,48.84,154.3,45.63,152.86,42.46z M82.3,67.66c-1.14-3.2-3.31-5.57-6.47-7.11
	c-3.16-1.54-6.36-1.71-9.63-0.54c-3.26,1.17-5.62,3.32-7.07,6.5c-1.44,3.15-1.58,6.36-0.41,9.62c1.17,3.27,3.34,5.65,6.46,7.11
	c3.15,1.49,6.33,1.66,9.54,0.51c3.26-1.17,5.63-3.34,7.11-6.48C83.32,74.14,83.48,70.93,82.3,67.66z M113.2,43.58
	c-1.19-3.31-3.37-5.69-6.58-7.16c-3.2-1.47-6.42-1.62-9.69-0.45c-3.25,1.17-5.6,3.34-7.06,6.5c-1.45,3.16-1.59,6.37-0.41,9.64
	c1.17,3.25,3.33,5.62,6.48,7.11c3.13,1.5,6.32,1.66,9.52,0.51c3.26-1.17,5.65-3.34,7.19-6.51C114.19,50.05,114.37,46.83,113.2,43.58
	z"/>
<path class="st1" d="M163.78,106.48c0,4.04-0.82,6.96-2.46,8.77c-1.65,1.82-4.43,2.72-8.35,2.72h-34.62c-4.08-0.5-7.28-3.85-7.55-8
	v-0.01c-0.01-0.18-0.01-0.37-0.01-0.55c0-1.38,0.32-2.67,0.9-3.82c0.76-1.53,1.96-2.81,3.44-3.66c1.26-0.73,2.73-1.14,4.29-1.14
	h19.64c-1.24-4.86-3.07-8.56-5.54-11.14c-2.78-2.89-6.37-4.43-10.73-4.59c-0.24-0.01-0.49-0.02-0.73-0.02h-0.1
	c-3.69,0-6.87,1.12-9.5,3.37c-0.52,0.43-1,0.9-1.47,1.42c-0.51,0.56-1.01,1.17-1.47,1.84c-3.29,4.19-5.33,10.01-5.33,16.44
	c0,4.09,0.82,7.93,2.27,11.26c0.74,1.94,1.52,3.52,2.34,4.75c1.19,1.84,2.71,3.43,4.55,4.73l0.16,0.11c2.61,1.99,5.51,3.22,8.7,3.72
	c0.31,0.05,0.61,0.09,0.91,0.11c2.25,0.37,4.24,1.4,5.98,3.1c1.11,1.08,1.93,2.28,2.48,3.59c0.55,1.31,0.82,2.74,0.82,4.29
	c0,3.04-1.1,5.64-3.31,7.8c-2.18,2.14-4.76,3.22-7.76,3.25h-0.03c-0.61-0.04-1.2-0.07-1.79-0.13c-5.42-0.45-10.56-1.72-15.39-3.84
	c-6.16-2.67-11.43-6.69-15.84-12.06c-3.41-4.14-5.83-8.62-7.25-13.43c-1.43-4.79-2.15-10.16-2.15-16.08
	c0-12.36,4.17-22.91,12.51-31.7c8.32-8.77,18.64-13.14,30.92-13.14c11.7,0,21.53,4.14,29.51,12.39
	C159.79,85.09,163.78,94.98,163.78,106.48z"/>
</svg>
